<svg width="110" height="32" viewBox="0 0 110 32" fill="none" xmlns="http://www.w3.org/2000/svg">
<ellipse cx="16.0003" cy="16" rx="4.99998" ry="5" fill="#9785FF" style="fill:#9785FF;fill:color(display-p3 0.5922 0.5216 1.0000);fill-opacity:1;"/>
<path d="M25.0091 27.8382C25.4345 28.2636 25.3918 28.9679 24.8919 29.3027C22.3488 31.0062 19.2899 31.9997 15.9991 31.9997C12.7082 31.9997 9.64935 31.0062 7.10616 29.3027C6.60633 28.9679 6.56361 28.2636 6.98901 27.8382L10.6429 24.1843C10.9732 23.854 11.4855 23.8019 11.9012 24.0148C13.1303 24.6445 14.5232 24.9997 15.9991 24.9997C17.4749 24.9997 18.8678 24.6445 20.0969 24.0148C20.5126 23.8019 21.0249 23.854 21.3552 24.1843L25.0091 27.8382Z" fill="#9785FF" style="fill:#9785FF;fill:color(display-p3 0.5922 0.5216 1.0000);fill-opacity:1;"/>
<path opacity="0.6" d="M24.8928 2.697C25.3926 3.0318 25.4353 3.73609 25.0099 4.16149L21.356 7.81544C21.0258 8.14569 20.5134 8.19785 20.0978 7.98491C18.8687 7.35525 17.4758 7 15.9999 7C11.0294 7 6.99997 11.0294 6.99997 16C6.99997 17.4759 7.35522 18.8688 7.98488 20.0979C8.19782 20.5136 8.14565 21.0259 7.81541 21.3561L4.16147 25.0101C3.73607 25.4355 3.03178 25.3927 2.69698 24.8929C0.993522 22.3497 0 19.2909 0 16C0 7.16344 7.16341 0 15.9999 0C19.2908 0 22.3496 0.993529 24.8928 2.697Z" fill="#9785FF" style="fill:#9785FF;fill:color(display-p3 0.5922 0.5216 1.0000);fill-opacity:1;"/>
<path fill-rule="evenodd" clip-rule="evenodd" d="M100.405 21.2489C100.421 21.2324 100.442 21.2231 100.465 21.2231C100.493 21.2231 100.518 21.2375 100.533 21.2613L105.275 28.8821C105.321 28.9554 105.401 29 105.487 29L109.75 29C109.946 29 110.066 28.7848 109.963 28.6183L103.457 18.1226C103.399 18.0278 103.41 17.9056 103.485 17.823L109.752 10.908C109.898 10.7473 109.784 10.4901 109.567 10.4901H105.12C105.05 10.4901 104.983 10.5194 104.936 10.5711L97.6842 18.4755C97.5301 18.6435 97.25 18.5345 97.25 18.3065V3.25C97.25 3.11193 97.138 3 97 3H93.25C93.1119 3 93 3.11193 93 3.25V28.75C93 28.8881 93.1119 29 93.25 29L97 29C97.138 29 97.25 28.8881 97.25 28.75V24.7373C97.25 24.6741 97.2739 24.6132 97.317 24.567L100.405 21.2489ZM52.2502 3.25C52.2502 3.11193 52.3621 3 52.5002 3H56.2501C56.3882 3 56.5001 3.11193 56.5001 3.25V28.75C56.5001 28.8881 56.3882 29 56.2501 29H52.5002C52.3621 29 52.2502 28.8881 52.2502 28.75V3.25ZM46.958 23.5912C46.8584 23.5052 46.7094 23.5117 46.6137 23.602C46.0293 24.1537 45.3447 24.595 44.5947 24.9028C43.7719 25.2407 42.8873 25.4108 41.995 25.4028C41.2415 25.4252 40.4913 25.2963 39.7906 25.0241C39.09 24.7519 38.4537 24.3422 37.9209 23.8202C36.9531 22.8322 36.396 21.4215 36.396 19.7399C36.396 16.3735 38.6356 14.0709 41.995 14.0709C42.896 14.0585 43.7888 14.241 44.6094 14.6052C45.3533 14.9355 46.0214 15.4077 46.5748 15.9934C46.6694 16.0936 46.8266 16.1052 46.9309 16.015L49.4625 13.8244C49.5659 13.7349 49.5785 13.5786 49.4873 13.4767C47.583 11.3488 44.5997 10.25 41.7627 10.25C36.0506 10.25 32.0003 14.1031 32.0003 19.7719C32.0003 22.5756 33.0069 24.9365 34.7044 26.6036C36.402 28.2707 38.8203 29.25 41.6108 29.25C45.1097 29.25 47.9259 27.9082 49.577 26.187C49.6739 26.086 49.6632 25.9252 49.5572 25.8338L46.958 23.5912ZM77.1575 20.9877C77.1436 21.1129 77.0371 21.2066 76.9111 21.2066H63.7746C63.615 21.2066 63.4961 21.3546 63.5377 21.5087C64.1913 23.9314 66.1398 25.3973 68.7994 25.3973C69.6959 25.4161 70.5846 25.2317 71.3968 24.8582C72.1536 24.5102 72.8249 24.0068 73.3659 23.3828C73.4314 23.3073 73.5454 23.2961 73.622 23.3602L76.2631 25.6596C76.3641 25.7476 76.3782 25.8999 76.2915 26.0021C74.697 27.8832 72.1135 29.25 68.5683 29.25C63.1142 29.25 59.0001 25.4731 59.0001 19.7348C59.0001 16.9197 59.9693 14.559 61.5847 12.8921C62.4374 12.0349 63.4597 11.3584 64.5882 10.9043C65.7168 10.4502 66.9281 10.2281 68.1473 10.2517C73.6753 10.2517 77.25 14.1394 77.25 19.5075C77.2431 20.0021 77.2123 20.4961 77.1575 20.9877ZM63.6166 17.5038C63.5702 17.6581 63.6894 17.8084 63.8505 17.8084H72.5852C72.7467 17.8084 72.8659 17.6572 72.8211 17.5021C72.2257 15.4416 70.7153 14.0666 68.3696 14.0666C67.6796 14.0447 66.993 14.1696 66.3565 14.4326C65.7203 14.6957 65.149 15.0908 64.6823 15.5907C64.1914 16.1473 63.8285 16.7998 63.6166 17.5038ZM90.2473 10.2527C90.3864 10.2512 90.5 10.3636 90.5 10.5027V14.7013C90.5 14.8469 90.3762 14.9615 90.2311 14.9508C89.8258 14.9207 89.4427 14.8952 89.1916 14.8952C85.9204 14.8952 84 17.1975 84 20.2195V28.75C84 28.8881 83.8881 29 83.75 29H80C79.862 29 79.75 28.8881 79.75 28.75V10.7623C79.75 10.6242 79.862 10.5123 80 10.5123H83.75C83.8881 10.5123 84 10.6242 84 10.7623V13.287C84 13.3013 84.0116 13.3128 84.0258 13.3128C84.034 13.3128 84.0416 13.3089 84.0465 13.3024C85.5124 11.3448 87.676 10.2559 89.9617 10.2559L90.2473 10.2527Z" fill="white" style="fill:white;fill:white;fill-opacity:1;"/>
</svg>
