<svg width="343" height="106" viewBox="0 0 343 106" fill="none" xmlns="http://www.w3.org/2000/svg">
<path fill-rule="evenodd" clip-rule="evenodd" d="M24.3636 23.7633C24.3636 30.161 27.0797 33.0833 34.7331 34.8992L34.721 34.9112L44.7405 37.3284C59.4799 40.9361 66.0589 48.1516 66.0589 60.7065C66.0589 77.5065 54.5788 87.1391 35.9644 87.1391C17.35 87.1391 6.7753 78.6369 5.375 62.5223H21.4906C22.5167 70.6157 27.5988 74.7165 35.9644 74.7165C44.33 74.7165 49.7381 70.2068 49.7381 63.2319C49.7381 56.6538 46.3943 53.3467 37.8355 51.4346L27.7195 49.1256C18.7383 46.9851 8.04282 41.1886 8.04282 25.6393C8.04282 10.9438 19.3539 1.07068 36.1817 1.07068C54.2891 1.07068 63.6687 8.23804 64.8276 22.9576H48.0481C47.2514 16.4516 43.2919 13.2768 35.9644 13.2768C29.1319 13.2768 24.3636 17.3656 24.3636 23.7633ZM259.88 44.6639C258.685 38.5668 254.725 35.7287 247.482 35.7287H246.432C236.919 35.7287 230.763 43.2088 230.763 54.7655C230.763 66.3223 236.907 73.8023 246.432 73.8023H247.482C254.725 73.8023 258.672 70.9642 259.88 64.8672H275.718C274.257 79.2259 264.068 87.1148 246.963 87.1148C228.844 87.1148 216.192 73.8143 216.192 54.7655C216.192 35.7167 228.844 22.4162 246.963 22.4162C264.068 22.4162 274.257 30.3171 275.718 44.6639H259.88ZM197.157 65.9738V35.3321H213.937V22.3443H203.036C199.789 22.3443 197.145 19.7347 197.145 16.5358V1.07068H181.174V22.3563H167.884C162.282 22.3563 157.236 25.6995 155.039 30.8826L141.229 63.4844L126.502 30.618C124.257 25.5912 119.259 22.3443 113.779 22.3443H94.6573C91.41 22.3443 88.7663 19.7347 88.7663 16.5358V1.07068H72.7956V70.5917C72.7956 81.4028 78.5296 87.1271 89.3699 87.1271H104.544V73.8266H96.637C90.3839 73.8266 88.7663 72.2151 88.7663 65.9738V35.3321H108.238C110.036 35.3321 111.364 36.0657 111.992 37.3765L133.48 82.4972V85.8134C133.48 92.175 131.717 92.4516 125.609 92.4516H105.546V105.993H132.079C142.304 105.993 148.654 98.7411 148.654 87.0761L148.714 81.7275L169.32 37.4126C169.948 36.0657 171.288 35.3321 173.098 35.3321H181.162V70.5796C181.162 81.3908 186.896 87.1151 197.737 87.1151H213.369V73.8146H205.004C198.751 73.8146 197.133 72.2031 197.133 65.9617L197.157 65.9738ZM298.236 30.9066L299.31 29.5958H299.298C303.028 25.0621 306.818 22.4284 315.232 22.4284C329.453 22.4284 337.625 31.3275 337.625 46.8648V87.1271H321.654V48.8491C321.654 44.0388 320.278 40.2146 317.671 37.7733C315.57 35.8011 312.746 34.8751 309.51 35.0675C301.821 35.5486 298.236 41.5013 298.236 53.8277V87.1271H282.265V1.07068H298.236V30.9066Z" fill="#1D1D1D"/>
</svg> 