<svg width="666" height="125" viewBox="0 0 666 125" fill="none" xmlns="http://www.w3.org/2000/svg">
<path d="M253.19 76.5277V122.877H279.839V76.5277C287.637 64.2441 319.152 7.64897 322.084 1.7857H291.096C286.259 10.3607 253.19 76.5277 253.19 76.5277ZM260.109 36.9506L245.451 63.4966C238.224 50.8906 217.6 14.7582 210.989 1.69775H242.065L260.109 36.9506Z" fill="#19303D"/>
<path d="M39.9581 101.623C43.1114 101.685 46.2608 101.37 49.3394 100.685C51.4383 100.192 53.4268 99.3125 55.2026 98.0901C56.5973 97.1347 57.6784 95.7883 58.3102 94.2203C58.9345 92.6076 59.2526 90.8926 59.2483 89.1632C59.2263 87.2075 58.7094 85.2891 57.7456 83.5872C56.7818 81.8852 55.4027 80.4551 53.7368 79.4302C50.0625 76.8895 43.7448 74.1289 34.7838 71.1484C30.875 69.7705 26.9661 68.1874 23.0573 66.3991C19.2418 64.6842 15.6964 62.4226 12.5327 59.6857C9.40014 56.932 6.83149 53.5967 4.96912 49.8647C2.90189 45.4845 1.89746 40.6783 2.03748 35.8368C1.9547 30.705 3.01102 25.6187 5.13036 20.9442C7.17461 16.5676 10.1811 12.7093 13.9253 9.65737C18.0152 6.40372 22.7004 3.97895 27.7186 2.51884C33.6463 0.771375 39.8033 -0.0736116 45.9826 0.0122969C53.0175 -0.115479 60.0351 0.75308 66.8265 2.59213C71.8323 3.98381 76.6807 5.88975 81.2942 8.2795L73.54 29.4605C69.9671 27.6399 66.2511 26.1153 62.4291 24.9019C57.6742 23.4908 52.7298 22.8233 47.7709 22.923C41.3311 22.923 36.7089 23.8123 33.9043 25.5908C32.5286 26.4468 31.4099 27.659 30.6667 29.0988C29.9236 30.5387 29.5836 32.1527 29.6828 33.77C29.588 35.7326 30.1109 37.6756 31.1779 39.3255C32.3529 40.9595 33.8493 42.3362 35.5754 43.3711C37.6458 44.6698 39.8348 45.7692 42.1129 46.6546C44.5852 47.6318 47.3165 48.6334 50.3068 49.6595C56.5121 51.9559 61.9112 54.2231 66.5041 56.4609C70.7047 58.4234 74.5607 61.0517 77.9228 64.2444C80.9471 67.1923 83.2757 70.7778 84.7388 74.7396C86.3394 79.4565 87.0985 84.4181 86.9815 89.3978C86.9815 100.538 83.0727 109.177 75.255 115.313C67.4373 121.45 55.6717 124.524 39.9581 124.533C35.1774 124.565 30.4007 124.247 25.6664 123.581C21.8587 123.043 18.0888 122.265 14.3797 121.25C11.5014 120.468 8.68035 119.488 5.93655 118.318C3.59125 117.278 1.53911 116.31 0 115.387L7.57827 94.0298C11.7805 96.2384 16.2019 98.0021 20.7706 99.2921C27.0247 100.969 33.4844 101.753 39.9581 101.623Z" fill="#19303D"/>
<path d="M197.167 1.77075V25.3851H160.961V122.979H134.196V25.3851H96.4214V1.77075H197.167Z" fill="#19303D"/>
<path d="M437.37 1.95435V25.5686H401.238V123.163H374.399V25.5686H336.625V1.95435H437.37Z" fill="#19303D"/>
<path d="M506.132 124.805C487.34 124.805 473.029 119.43 463.198 108.681C453.367 97.9312 448.447 82.6183 448.437 62.7419C448.286 53.7438 449.812 44.7964 452.937 36.3572C455.671 29.0508 459.871 22.3813 465.279 16.7592C470.543 11.4055 476.918 7.27236 483.954 4.65156C491.453 1.85135 499.402 0.450305 507.407 0.517963C511.878 0.486676 516.342 0.859533 520.746 1.63198C524.298 2.2781 527.808 3.13963 531.256 4.21182C533.85 5.02383 536.374 6.04342 538.805 7.26072C540.813 8.28679 542.249 9.09299 543.202 9.66466L535.697 31.3148C531.747 29.2172 527.585 27.5465 523.282 26.331C518.032 24.8816 512.603 24.1857 507.158 24.2642C503.159 24.2693 499.191 24.9686 495.431 26.331C491.578 27.7312 488.097 29.998 485.258 32.9565C482.106 36.3281 479.694 40.3227 478.178 44.683C476.264 50.3444 475.361 56.2984 475.511 62.2728C475.459 67.4374 476.025 72.5896 477.196 77.6199C478.223 82.0607 480.154 86.2421 482.869 89.9034C485.575 93.4183 489.097 96.2207 493.13 98.068C497.953 100.198 503.192 101.225 508.462 101.073C511.866 101.097 515.266 100.866 518.635 100.384C521.333 99.9956 524.005 99.4474 526.638 98.7423C528.745 98.2101 530.808 97.5192 532.81 96.6755C534.588 95.8644 536.2 95.1169 537.647 94.4328L544.888 115.863C540.034 118.642 534.813 120.724 529.379 122.049C521.788 124.001 513.969 124.927 506.132 124.805Z" fill="#19303D"/>
<path d="M637.542 2.13037H665.876V123.383H637.542V71.4195H591.882V123.383H565.101V2.13037H591.882V47.7906H637.542V2.13037Z" fill="#19303D"/>
</svg>
